<?xml version="1.0" encoding="UTF-8"?>
<svg version="1.1" xmlns="http://www.w3.org/2000/svg" width="512" height="512">
<path d="M0 0 C12.79511287 6.44705124 23.53020378 20.21975301 33.56103516 30.20336914 C35.27665356 31.90738891 36.99674971 33.60691177 38.72119141 35.30200195 C41.24856052 37.78655457 43.76227739 40.28423419 46.2734375 42.78515625 C47.41732437 43.90278099 47.41732437 43.90278099 48.58432007 45.04298401 C56.94934217 53.4419201 61.85723429 61.25238042 62.1875 73.1875 C62.24808594 74.4971875 62.30867187 75.806875 62.37109375 77.15625 C61.34111717 90.70046107 50.20187336 100.12459651 41.2308197 109.07624817 C39.72459386 110.60086554 38.21964718 112.12674751 36.71586519 113.65377539 C32.59575642 117.82980871 28.45717513 121.9870919 24.31508482 126.14130795 C19.8437768 130.63200926 15.38957212 135.13962541 10.93278503 139.64472961 C0.67986019 150.00134443 -9.59859365 160.33238559 -19.88198947 170.65873073 C-24.9744871 175.77278067 -30.06370571 180.89008875 -35.15272725 186.00759738 C-52.60631984 203.55841961 -70.06783224 221.10132203 -87.5517664 238.62192249 C-88.64823111 239.72072942 -89.74469336 240.8195388 -90.84115317 241.91835062 C-91.65669961 242.73564277 -91.65669961 242.73564277 -92.48872173 243.56944588 C-95.24291852 246.32955136 -97.99708274 249.08968934 -100.7512207 251.84985352 C-101.2977771 252.39758929 -101.84433349 252.94532507 -102.4074522 253.50965889 C-120.09210934 271.23307091 -137.73293359 288.99927383 -155.3483002 306.79153752 C-174.01356537 325.64389524 -192.7192578 344.45522135 -211.47055429 363.22202319 C-213.53580042 365.28928202 -215.60087822 367.35670885 -217.66583061 369.42426109 C-218.42841865 370.18775559 -218.42841865 370.18775559 -219.2064125 370.96667421 C-227.33038331 379.10219701 -235.41743643 387.2734538 -243.49119914 395.45877112 C-251.6364832 403.71474132 -259.82363426 411.92708946 -268.05035097 420.10196046 C-272.49244465 424.51829637 -276.91582247 428.94953179 -281.29124451 433.43201447 C-301.5802525 454.18977297 -319.52096226 468.78409027 -347.48201549 477.47628152 C-352.6342976 479.13248241 -357.57127284 481.19020189 -362.53125 483.34375 C-364.08812303 483.99509195 -365.64576802 484.64459566 -367.20458984 485.29125977 C-367.94650574 485.60104767 -368.68842163 485.91083557 -369.45281982 486.23001099 C-371.90525782 487.2522131 -374.35982038 488.26917167 -376.81494141 489.28491211 C-384.58467801 492.49974382 -392.3495925 495.72363213 -400.09185791 499.00418091 C-403.46198106 500.42821075 -406.83853922 501.8365044 -410.21655273 503.24169922 C-411.79877925 503.9041012 -413.37816513 504.57333764 -414.9543457 505.25 C-431.14032159 512.19259565 -431.14032159 512.19259565 -440.25 510.6875 C-444.00317323 509.09040501 -446.56940288 506.75103956 -449.25 503.6875 C-453.27186836 491.62189492 -447.13561776 480.81332581 -442.4375 469.875 C-441.62369873 467.94059882 -440.81188686 466.00535964 -440.00195312 464.06933594 C-438.30107602 460.00968001 -436.5903655 455.95437542 -434.87255859 451.90185547 C-431.00463394 442.76032076 -427.24301446 433.57503553 -423.46829224 424.39474487 C-421.86579139 420.5048839 -420.25338696 416.61916429 -418.64109802 412.73335266 C-415.74478892 405.75240222 -412.86691262 398.76683312 -410.078125 391.7421875 C-409.40523438 390.06624512 -409.40523438 390.06624512 -408.71875 388.35644531 C-407.95009117 386.43664596 -407.19321264 384.51204827 -406.453125 382.58105469 C-401.62214121 370.60266811 -390.67691353 361.9608098 -381.70808411 352.98495483 C-380.21309057 351.48522528 -378.71830513 349.98528826 -377.22370929 348.48516238 C-373.12618626 344.3737856 -369.02554903 340.26552744 -364.92434394 336.15782404 C-361.40475543 332.63184777 -357.88701034 329.10403526 -354.36928294 325.57620238 C-342.78702723 313.96069371 -331.19895198 302.35100246 -319.60922745 290.74294704 C-316.59158251 287.72052879 -313.57405486 284.69799346 -310.55653548 281.67544985 C-291.81042895 262.89830209 -273.06210238 244.12337256 -254.30885792 225.3533535 C-249.96946005 221.01001875 -245.63009973 216.66664649 -241.29077148 212.32324219 C-240.7516929 211.78366193 -240.21261431 211.24408168 -239.65720002 210.68815051 C-222.17226894 193.18679497 -204.69839677 175.67445036 -187.23070564 158.15588924 C-169.25925753 140.13219981 -151.27808913 122.11826789 -133.28413138 104.11704943 C-130.74200707 101.57389659 -128.19998668 99.03063989 -125.65802574 96.48732376 C-125.1577767 95.98681668 -124.65752765 95.48630959 -124.14211954 94.97063563 C-116.10032213 86.924148 -108.06868277 78.86759472 -100.04074021 70.8072868 C-91.97017505 62.70465986 -83.88837047 54.61341538 -75.79578993 46.53276847 C-71.4140394 42.15684653 -67.03728884 37.77621393 -62.67353249 33.38234138 C-58.67616938 29.35761648 -54.66512323 25.34706953 -50.6428872 21.34720655 C-49.19282653 19.90036814 -47.74779211 18.44847034 -46.30844817 16.9909703 C-33.05064238 3.57616948 -19.79543091 -6.39691578 0 0 Z " fill="#FED23B" transform="translate(450.25,1.3125)"/>
<path d="M0 0 C2.7248584 1.31638322 4.48940235 3.20544478 6.60413098 5.36084127 C7.93831067 6.70952291 7.93831067 6.70952291 9.29944348 8.08545065 C10.21983411 9.03097799 11.14022473 9.97650534 12.08850598 10.95068502 C13.03312271 11.91035476 13.97842793 12.86934731 14.92444348 13.82763815 C17.23599771 16.1745733 19.54026938 18.52821893 21.83850598 20.88818502 C16.4355544 27.42915319 10.5062396 33.42183414 4.5462544 39.4487319 C3.39170844 40.61948422 2.2373369 41.79040855 1.08312398 42.9614892 C-2.07902662 46.16844798 -5.24429117 49.37231698 -8.41025507 52.57551074 C-10.43675083 54.6263181 -12.46236606 56.67799121 -14.48769641 58.72994947 C-41.00703136 85.59738654 -67.59998839 112.39183733 -94.21538901 139.16407919 C-97.59271679 142.5616699 -100.96984304 145.95946079 -104.34679675 149.35742331 C-105.18602347 150.20185535 -106.02525018 151.04628739 -106.88990801 151.91630828 C-120.44105182 165.55385083 -133.95128644 179.23121617 -147.44619489 192.92438293 C-161.33938742 207.01995164 -175.27488942 221.07264836 -189.2498495 235.08715773 C-197.84487026 243.70905646 -206.4066874 252.36127686 -214.92690634 261.05711311 C-220.79223545 267.03680151 -226.69881936 272.97372393 -232.63741273 278.88064724 C-236.04698555 282.2743616 -239.43754728 285.68202863 -242.77964854 289.14231825 C-260.74267308 307.70804466 -277.73571436 318.33146375 -302.26778185 326.55251741 C-307.43314642 328.29349067 -312.43749784 330.39182441 -317.44274402 332.54443502 C-318.99985842 333.19519973 -320.5575401 333.8446108 -322.11608386 334.49194479 C-322.85799975 334.80173269 -323.59991565 335.1115206 -324.36431384 335.43069601 C-326.81675183 336.45289813 -329.27131439 337.46985669 -331.72643542 338.48559713 C-339.49617203 341.70042885 -347.26108652 344.92431715 -355.00335193 348.20486593 C-358.37347508 349.62889578 -361.75003324 351.03718942 -365.12804675 352.44238424 C-366.71027327 353.10478622 -368.28965915 353.77402266 -369.86583972 354.45068502 C-386.05181561 361.39328067 -386.05181561 361.39328067 -395.16149402 359.88818502 C-398.91466725 358.29109003 -401.4808969 355.95172458 -404.16149402 352.88818502 C-408.10862294 341.04679824 -402.26426757 330.45387613 -397.66149402 319.70068502 C-396.93705771 317.96900675 -396.21438538 316.23658942 -395.49352527 314.5034194 C-393.73642221 310.28953733 -391.95568534 306.08640185 -390.16149402 301.88818502 C-386.06402591 303.48987838 -383.46041186 306.45252243 -380.51305652 309.58740377 C-379.41484882 310.72549837 -378.31586665 311.86284606 -377.21618152 312.99951315 C-375.49431232 314.78955813 -373.77845433 316.58422146 -372.07555652 318.39233541 C-370.42466168 320.13999209 -368.75246722 321.86474485 -367.07555652 323.58740377 C-366.32056369 324.40600126 -366.32056369 324.40600126 -365.55031848 325.24113607 C-363.06539335 327.76168636 -361.76957222 328.87935936 -358.16735339 328.93164206 C-354.84614579 327.77871473 -352.14082882 326.35071509 -349.15368152 324.49365377 C-348.59468661 324.15013876 -348.03569171 323.80662374 -347.45975757 323.45269918 C-345.64640375 322.33581093 -343.84160881 321.20583063 -342.03649402 320.07568502 C-340.77859385 319.29802981 -339.52004268 318.52142667 -338.26085925 317.74585104 C-335.73934081 316.1920495 -333.22034713 314.63427775 -330.70299792 313.0737319 C-325.9071791 310.10672726 -321.06817015 307.21286351 -316.22399402 304.32568502 C-311.83629816 301.70609238 -307.45358661 299.08253052 -303.11852527 296.37646627 C-302.50678454 295.99498434 -301.89504382 295.61350241 -301.2647655 295.22046041 C-299.67283523 294.2235644 -298.08493859 293.2202348 -296.49743152 292.21631002 C-294.16149402 290.88818502 -294.16149402 290.88818502 -292.16149402 290.88818502 C-292.16149402 290.22818502 -292.16149402 289.56818502 -292.16149402 288.88818502 C-290.82074547 287.56782913 -290.82074547 287.56782913 -288.88905215 285.9853301 C-283.12660641 281.0786146 -277.85175671 275.69691632 -272.52056384 270.33386374 C-271.35354079 269.16369219 -270.18628624 267.99375148 -269.01882172 266.82402039 C-266.49165998 264.29097136 -263.96611608 261.7563241 -261.44181705 259.22042227 C-257.33407648 255.09381974 -253.22280876 250.97074254 -249.1111095 246.84808493 C-243.91589625 241.63850297 -238.72163483 236.42797501 -233.52849057 231.21633059 C-223.33352647 220.98506837 -213.13234205 210.76002862 -202.92888904 200.53723288 C-201.32174475 198.92697827 -199.71460414 197.31672 -198.10746717 195.70645809 C-195.67237024 193.26663573 -193.23726968 190.82681698 -190.80215441 188.38701293 C-181.63216004 179.19931171 -172.46285838 170.01091949 -163.29430652 160.82177877 C-162.4565264 159.98212161 -161.61874629 159.14246444 -160.75557891 158.27736312 C-147.15402576 144.64486373 -133.55984968 131.00502812 -119.96789607 117.36295861 C-106.01434302 103.35839244 -92.0513105 89.36332748 -78.07977867 75.37669754 C-69.45987243 66.74680557 -60.84777231 58.10926803 -52.24541762 49.46187979 C-46.35855131 43.54554281 -40.46268138 37.63828098 -34.55951282 31.73821014 C-31.1500867 28.33000723 -27.74495516 24.9177732 -24.35051608 21.49463797 C-21.2475909 18.36564767 -18.13352313 15.24823006 -15.00991097 12.13989478 C-13.877835 11.00924675 -12.75004255 9.87429137 -11.62685713 8.73481101 C-10.10757538 7.19470399 -8.57391948 5.67057273 -7.03543735 4.14968252 C-6.18464374 3.29644825 -5.33385014 2.44321397 -4.45727491 1.56412411 C-2.16149402 -0.11181498 -2.16149402 -0.11181498 0 0 Z " fill="#FEB24A" transform="translate(405.16149401664734,152.11181497573853)"/>
<path d="M0 0 C12.79511287 6.44705124 23.53020378 20.21975301 33.56103516 30.20336914 C35.27665356 31.90738891 36.99674971 33.60691177 38.72119141 35.30200195 C41.24856052 37.78655457 43.76227739 40.28423419 46.2734375 42.78515625 C47.03602875 43.53023941 47.79862 44.27532257 48.58432007 45.04298401 C56.94934217 53.4419201 61.85723429 61.25238042 62.1875 73.1875 C62.24808594 74.4971875 62.30867187 75.806875 62.37109375 77.15625 C61.57781694 88.60921926 53.12001223 97.16195556 45.3203125 104.703125 C44.31865813 105.6935534 43.31834629 106.6853412 42.31930542 107.67840576 C39.71858961 110.25649048 37.10036823 112.8160187 34.47772217 115.37176514 C31.79177222 117.99572926 29.12326609 120.63731128 26.453125 123.27734375 C21.23541321 128.4311987 15.99903066 133.56552475 10.75 138.6875 C7.59772849 137.29113479 5.47059618 135.65579025 3.04205322 133.22006226 C1.9610006 132.14313362 1.9610006 132.14313362 0.85810852 131.04444885 C0.07767685 130.25682663 -0.70275482 129.46920441 -1.50683594 128.65771484 C-2.75129234 127.41369652 -2.75129234 127.41369652 -4.02088928 126.14454651 C-6.76348464 123.40055719 -9.4989268 120.64955027 -12.234375 117.8984375 C-14.13338767 115.99458432 -16.0339031 114.09223405 -17.93438721 112.18984985 C-22.42547851 107.69254509 -26.91144767 103.19016689 -31.39559674 98.68594134 C-36.50167538 93.55749956 -41.61344159 88.43474302 -46.72569227 83.31245494 C-57.24013346 72.77711478 -67.74741465 62.23466018 -78.25 51.6875 C-76.65254404 48.32266231 -74.88648567 46.05119614 -72.26611328 43.38134766 C-71.03309982 42.11951157 -71.03309982 42.11951157 -69.775177 40.83218384 C-68.88257172 39.9310788 -67.98996643 39.02997375 -67.0703125 38.1015625 C-66.14717255 37.1670224 -65.22403259 36.2324823 -64.2729187 35.2696228 C-62.31472946 33.29044341 -60.35193653 31.31594889 -58.38671875 29.34375 C-55.89418245 26.84031649 -53.42070658 24.31893275 -50.9514637 21.79255104 C-49.02949098 19.83292672 -47.09383689 17.88723898 -45.15447617 15.94483566 C-43.79811571 14.57962858 -42.45595776 13.20035672 -41.11428833 11.82070923 C-29.47160712 0.25990167 -16.14282927 -5.21657345 0 0 Z " fill="#FF5177" transform="translate(450.25,1.3125)"/>
<path d="M0 0 C5.38104651 4.49096082 10.37957831 9.24209175 15.32202148 14.20849609 C16.52324394 15.40949951 16.52324394 15.40949951 17.74873352 16.63476562 C20.37523304 19.26195761 22.99818016 21.89266583 25.62109375 24.5234375 C27.44933061 26.3535409 29.27778947 28.18342255 31.10646057 30.01309204 C35.4146616 34.32471128 39.72063013 38.63854825 44.02550608 42.95348704 C48.93047541 47.86967046 53.83831671 52.78298256 58.74639022 57.69606662 C68.83410455 67.79420687 78.91824333 77.89591192 89 88 C88.06518608 89.10146846 87.12878502 90.20159002 86.19174194 91.30116272 C85.67045904 91.91394105 85.14917614 92.52671938 84.61209679 93.15806675 C82.10665047 96.02071428 79.42840608 98.69518224 76.7265625 101.37109375 C76.15795502 101.93828629 75.58934753 102.50547882 75.00350952 103.08985901 C73.21303764 104.87479913 71.41909516 106.65620256 69.625 108.4375 C68.39950677 109.65796939 67.17424428 110.87867053 65.94921875 112.09960938 C62.96880226 115.06908756 59.98527106 118.03540257 57 121 C53.84772849 119.60363479 51.72059618 117.96829025 49.29205322 115.53256226 C48.57135147 114.81460983 47.85064972 114.09665741 47.10810852 113.35694885 C46.32767685 112.56932663 45.54724518 111.78170441 44.74316406 110.97021484 C43.49870766 109.72619652 43.49870766 109.72619652 42.22911072 108.45704651 C39.48651536 105.71305719 36.7510732 102.96205027 34.015625 100.2109375 C32.11661233 98.30708432 30.2160969 96.40473405 28.31561279 94.50234985 C23.82452149 90.00504509 19.33855233 85.50266689 14.85440326 80.99844134 C9.74832462 75.86999956 4.63655841 70.74724302 -0.47569227 65.62495494 C-10.99013346 55.08961478 -21.49741465 44.54716018 -32 34 C-30.61392869 31.11988497 -29.29430637 29.04813573 -27.01904297 26.79199219 C-26.41857147 26.19167175 -25.81809998 25.59135132 -25.19943237 24.97283936 C-24.55354156 24.33727112 -23.90765076 23.70170288 -23.2421875 23.046875 C-22.57913605 22.38665344 -21.91608459 21.72643188 -21.23294067 21.04620361 C-19.11828168 18.94272176 -16.99676788 16.84630858 -14.875 14.75 C-13.43834443 13.32337739 -12.00214102 11.89629928 -10.56640625 10.46875 C-7.04949196 6.97386339 -3.52641453 3.48529938 0 0 Z " fill="#FEFDFD" transform="translate(371,52)"/>
<path d="M0 0 C4.20520807 1.64491538 7.02696585 4.74584554 10.14550781 7.88671875 C10.75081329 8.48851959 11.35611877 9.09032043 11.97976685 9.71035767 C13.97594212 11.6977413 15.96472603 13.6923383 17.953125 15.6875 C19.33717068 17.07019865 20.72151315 18.45260027 22.10614014 19.8347168 C25.00436405 22.72999322 27.89894175 25.62885415 30.79101562 28.53027344 C34.50575673 32.25643009 38.22943177 35.97350887 41.95586014 39.68797302 C44.81438339 42.53928578 47.66814633 45.39532445 50.52046967 48.25283813 C51.89218914 49.62589524 53.26540538 50.99745867 54.64011383 52.36752319 C56.55563579 54.27799096 58.46467081 56.19470877 60.37207031 58.11328125 C61.23226273 58.96740097 61.23226273 58.96740097 62.10983276 59.83877563 C66 63.77146915 66 63.77146915 66 66 C63.77888474 67.45007096 61.56001916 68.76541484 59.25 70.0625 C57.68753894 70.96004425 56.12644051 71.85996304 54.56640625 72.76171875 C53.68871582 73.26880371 52.81102539 73.77588867 51.90673828 74.29833984 C46.90106685 77.22875559 41.95224722 80.2526178 36.99966431 83.27151489 C35.18573349 84.37607569 33.36990473 85.47744858 31.5534668 86.57788086 C25.99041036 89.95001444 20.4408843 93.34023477 14.9296875 96.796875 C14.01550049 97.3635791 13.10131348 97.9302832 12.15942383 98.51416016 C10.47470333 99.55917152 8.79694058 100.61551686 7.12768555 101.68505859 C6.38558838 102.14219238 5.64349121 102.59932617 4.87890625 103.0703125 C4.2454126 103.47008301 3.61191895 103.86985352 2.95922852 104.28173828 C0.11812346 105.32329979 -1.15167977 105.06746584 -4 104 C-6.28338691 102.05700739 -8.32295783 100.14339135 -10.39453125 97.99609375 C-11.28285896 97.09927635 -11.28285896 97.09927635 -12.18913269 96.18434143 C-14.07320469 94.27792983 -15.94287154 92.35806809 -17.8125 90.4375 C-19.08956854 89.14036347 -20.36755339 87.84412838 -21.64648438 86.54882812 C-24.77504052 83.37623663 -27.89075189 80.19151172 -31 77 C-28.21995994 68.09169645 -24.6468066 59.50823138 -21.125 50.875 C-20.46081579 49.24130871 -19.79667241 47.60760083 -19.13256836 45.97387695 C-12.87304302 30.5997679 -6.46655524 15.28804051 0 0 Z " fill="#FEEFBD" transform="translate(47,377)"/>
<path d="M0 0 C7.66666667 7.66666667 15.33333333 15.33333333 23 23 C19.54444829 25.30370114 15.93167565 26.78365416 12.109375 28.3515625 C10.91002571 28.84796738 10.91002571 28.84796738 9.68644714 29.35440063 C7.04227193 30.44779567 4.39617842 31.53646293 1.75 32.625 C-0.10352803 33.39007231 -1.95696099 34.15537498 -3.81030273 34.92089844 C-8.60350495 36.89949987 -13.39850343 38.87370439 -18.1942749 40.84606934 C-20.87663997 41.94926484 -23.55871924 43.05315218 -26.24072266 44.15722656 C-39.64378013 49.67309338 -39.64378013 49.67309338 -45.8984375 52.22314453 C-47.49092061 52.87263507 -49.0833688 53.52221124 -50.67578125 54.171875 C-51.45257233 54.48877289 -52.2293634 54.80567078 -53.0296936 55.13217163 C-57.67253429 57.03165615 -62.29898887 58.96582237 -66.91404724 60.93182373 C-69.83402795 62.17396158 -72.75987888 63.40188285 -75.68649292 64.6282959 C-77.03693662 65.19877483 -78.38452285 65.77607777 -79.72879028 66.36096191 C-87.54699431 69.76051742 -94.39257685 72.23853332 -103 71 C-106.75317323 69.40290501 -109.31940288 67.06353956 -112 64 C-115.94712893 52.15861322 -110.10277356 41.56569111 -105.5 30.8125 C-104.7755637 29.08082172 -104.05289136 27.34840439 -103.33203125 25.61523438 C-101.5749282 21.4013523 -99.79419132 17.19821683 -98 13 C-93.90253189 14.60169336 -91.29891784 17.56433741 -88.3515625 20.69921875 C-87.2533548 21.83731335 -86.15437263 22.97466103 -85.0546875 24.11132812 C-83.3328183 25.9013731 -81.61696031 27.69603643 -79.9140625 29.50415039 C-78.26316766 31.25180706 -76.5909732 32.97655982 -74.9140625 34.69921875 C-74.41073395 35.24495041 -73.9074054 35.79068207 -73.38882446 36.35295105 C-70.90389933 38.87350134 -69.6080782 39.99117434 -66.00585938 40.04345703 C-62.68465177 38.8905297 -59.9793348 37.46253006 -56.9921875 35.60546875 C-56.4331926 35.26195374 -55.87419769 34.91843872 -55.29826355 34.56451416 C-53.48490973 33.4476259 -51.68011479 32.3176456 -49.875 31.1875 C-48.61709983 30.40984478 -47.35854867 29.63324165 -46.09936523 28.85766602 C-43.5778468 27.30386448 -41.05885311 25.74609273 -38.54150391 24.18554688 C-33.74568509 21.21854223 -28.90667613 18.32467848 -24.0625 15.4375 C-19.67480414 12.81790735 -15.29209259 10.1943455 -10.95703125 7.48828125 C-10.03942017 6.91605835 -10.03942017 6.91605835 -9.10327148 6.33227539 C-7.51134121 5.33537938 -5.92344457 4.33204978 -4.3359375 3.328125 C-2 2 -2 2 0 2 C0 1.34 0 0.68 0 0 Z " fill="#FED09C" transform="translate(113,441)"/>
<path d="M0 0 C5.41380869 4.5364721 10.53523474 9.28976494 15.5625 14.25 C16.65594727 15.29994141 16.65594727 15.29994141 17.77148438 16.37109375 C26.21685532 24.71764397 31.10698591 32.55590478 31.4375 44.5 C31.49808594 45.8096875 31.55867187 47.119375 31.62109375 48.46875 C30.82781694 59.92171926 22.37001223 68.47445556 14.5703125 76.015625 C13.56865813 77.0060534 12.56834629 77.9978412 11.56930542 78.99090576 C8.96858961 81.56899048 6.35036823 84.1285187 3.72772217 86.68426514 C1.04177222 89.30822926 -1.62673391 91.94981128 -4.296875 94.58984375 C-9.51458679 99.7436987 -14.75096934 104.87802475 -20 110 C-23.52344644 108.3413812 -25.79901878 106.43342692 -28.546875 103.6484375 C-29.39121094 102.79765625 -30.23554688 101.946875 -31.10546875 101.0703125 C-31.97816406 100.18085938 -32.85085938 99.29140625 -33.75 98.375 C-35.08224609 97.02921875 -35.08224609 97.02921875 -36.44140625 95.65625 C-38.63216969 93.44192996 -40.81812763 91.22307565 -43 89 C-41.52329068 85.55761117 -39.60016912 83.38687847 -36.92089844 80.7890625 C-36.07952332 79.96720459 -35.23814819 79.14534668 -34.37127686 78.29858398 C-33.45984924 77.41630127 -32.54842163 76.53401855 -31.609375 75.625 C-30.17654053 74.21824282 -28.74372473 72.81146607 -27.31196976 71.40361023 C-23.79071932 67.9431444 -20.26036469 64.49222261 -16.71435547 61.05712891 C-14.24131854 58.66028712 -11.78390461 56.24829585 -9.33521271 53.82659912 C-7.96258251 52.47750938 -6.5737562 51.14496041 -5.18450928 49.81298828 C1.29280688 43.38807241 7.73172199 35.49382343 8.69140625 26.046875 C8.29424302 15.88912443 6.76701181 9.68147287 0 2 C0 1.34 0 0.68 0 0 Z " fill="#FF3187" transform="translate(481,30)"/>
<path d="M0 0 C3.30194891 1.44337034 5.49017493 3.23730443 8.03417969 5.77539062 C8.81468689 6.54959351 9.59519409 7.32379639 10.39935303 8.12145996 C11.23178528 8.95794067 12.06421753 9.79442139 12.921875 10.65625 C13.78186096 11.51432251 14.64184692 12.37239502 15.52789307 13.25646973 C17.34250826 15.06972467 19.15460316 16.88550481 20.96435547 18.70361328 C23.74615621 21.49614138 26.53848145 24.27782458 29.33203125 27.05859375 C31.09178772 28.81967133 32.85092395 30.58136894 34.609375 32.34375 C35.87016876 33.59847107 35.87016876 33.59847107 37.15643311 34.87854004 C37.92433167 35.65274292 38.69223022 36.4269458 39.48339844 37.22460938 C40.16416443 37.90696655 40.84493042 38.58932373 41.54632568 39.2923584 C43 41 43 41 43 43 C37.94234753 45.16148821 32.87456904 47.29647216 27.79614258 49.40869141 C26.07379395 50.12922471 24.35430574 50.85663874 22.63793945 51.59130859 C3.73843413 59.66989912 3.73843413 59.66989912 -5 58 C-8.75317323 56.40290501 -11.31940288 54.06353956 -14 51 C-17.94712893 39.15861322 -12.10277356 28.56569111 -7.5 17.8125 C-6.7755637 16.08082172 -6.05289136 14.34840439 -5.33203125 12.61523438 C-3.5749282 8.4013523 -1.79419132 4.19821683 0 0 Z " fill="#2D3E52" transform="translate(15,454)"/>
<path d="M0 0 C4.08651876 0.44428867 5.94280117 2.59554735 8.765625 5.47265625 C9.65507812 6.37177734 10.54453125 7.27089844 11.4609375 8.19726562 C12.38132812 9.14279297 13.30171875 10.08832031 14.25 11.0625 C15.19461673 12.02216973 16.13992195 12.98116229 17.0859375 13.93945312 C19.39749172 16.28638828 21.7017634 18.64003391 24 21 C20.10023279 25.66874537 16.04785356 30.09127809 11.7265625 34.37109375 C11.15795502 34.93828629 10.58934753 35.50547882 10.00350952 36.08985901 C8.21303764 37.87479913 6.41909516 39.65620256 4.625 41.4375 C3.39950677 42.65796939 2.17424428 43.87867053 0.94921875 45.09960938 C-2.03119774 48.06908756 -5.01472894 51.03540257 -8 54 C-11.56764285 52.48623919 -13.83706287 50.39486871 -16.546875 47.6484375 C-17.39121094 46.79765625 -18.23554688 45.946875 -19.10546875 45.0703125 C-19.97816406 44.18085938 -20.85085938 43.29140625 -21.75 42.375 C-23.08224609 41.02921875 -23.08224609 41.02921875 -24.44140625 39.65625 C-26.63216969 37.44192996 -28.81812763 35.22307565 -31 33 C-29.70949477 30.17220989 -28.34597974 28.0859181 -26.17431641 25.86791992 C-25.60677643 25.28439255 -25.03923645 24.70086517 -24.45449829 24.09965515 C-23.84302948 23.48282364 -23.23156067 22.86599213 -22.6015625 22.23046875 C-21.97019379 21.59007156 -21.33882507 20.94967438 -20.68832397 20.28987122 C-19.35452493 18.94159069 -18.01791882 17.59608207 -16.67871094 16.25317383 C-14.62705621 14.18956818 -12.59479077 12.10804644 -10.5625 10.02539062 C-9.2641728 8.71760536 -7.96473095 7.41092553 -6.6640625 6.10546875 C-6.05664215 5.47851608 -5.4492218 4.85156342 -4.82339478 4.20561218 C-3.08447266 2.48510742 -3.08447266 2.48510742 0 0 Z " fill="#DFF3FD" transform="translate(436,119)"/>
<path d="M0 0 C2.5174594 2.077163 4.84635134 4.2508576 7.1484375 6.56640625 C8.04046875 7.45328125 8.9325 8.34015625 9.8515625 9.25390625 C11.8984375 11.56640625 11.8984375 11.56640625 11.8984375 13.56640625 C6.84078503 15.72789446 1.77300654 17.86287841 -3.30541992 19.97509766 C-5.02776855 20.69563096 -6.74725676 21.42304499 -8.46362305 22.15771484 C-27.4975904 30.29378115 -27.4975904 30.29378115 -36.1015625 28.56640625 C-39.2890625 27.06640625 -39.2890625 27.06640625 -41.1015625 25.56640625 C-39.88369665 21.91280871 -39.01613374 21.64450426 -35.75390625 19.78125 C-34.84560059 19.25474854 -33.93729492 18.72824707 -33.00146484 18.18579102 C-32.02387207 17.63076904 -31.0462793 17.07574707 -30.0390625 16.50390625 C-21.53131518 11.62465152 -21.53131518 11.62465152 -13.22265625 6.41796875 C-12.49892822 5.94496338 -11.7752002 5.47195801 -11.02954102 4.98461914 C-9.68695163 4.09802158 -8.35234465 3.19918484 -7.02709961 2.28686523 C-2.69108453 -0.55522376 -2.69108453 -0.55522376 0 0 Z " fill="#16202D" transform="translate(46.1015625,483.43359375)"/>
</svg>
