<?xml version="1.0" encoding="UTF-8"?>
<svg version="1.1" xmlns="http://www.w3.org/2000/svg" width="512" height="512">
<path d="M0 0 C10.07962998 7.04457303 18.60574512 16.26704948 27.25341797 24.93774414 C29.74970298 27.4372026 32.2590772 29.92298592 34.76953125 32.40820312 C36.38362283 34.02002227 37.99693113 35.63262626 39.609375 37.24609375 C40.34806824 37.97557724 41.08676147 38.70506073 41.84783936 39.45664978 C50.95734617 48.6466709 58.28095062 58.01439708 58.46899414 71.30712891 C58.45860107 72.15452637 58.44820801 73.00192383 58.4375 73.875 C58.42775146 74.75978027 58.41800293 75.64456055 58.40795898 76.55615234 C57.89794082 95.30061668 43.01864163 106.13611583 30.6222229 118.60569763 C29.16921513 120.07061533 27.7163919 121.53571608 26.26373613 123.00098282 C22.29090074 127.00696137 18.31499651 131.00988137 14.33844233 135.01216805 C10.92304764 138.45036453 7.50937746 141.89027096 4.09561981 145.33009272 C-27.76966638 177.43712966 -59.68922679 209.49028552 -91.62312995 241.52906083 C-96.37171679 246.2933025 -101.11999794 251.0578488 -105.86816406 255.82250977 C-106.65505309 256.61211268 -106.65505309 256.61211268 -107.45783886 257.41766717 C-124.45031076 274.46912855 -141.41527068 291.54764458 -158.36565141 308.64094002 C-175.82351708 326.24572802 -193.30770219 343.823947 -210.82543899 361.36917084 C-213.30526161 363.85290272 -215.78479223 366.33692593 -218.26414871 368.82112312 C-218.75202821 369.30993489 -219.2399077 369.79874665 -219.74257143 370.30237089 C-227.55525785 378.13148955 -235.3402735 385.98756303 -243.11504294 393.85431669 C-250.94752056 401.77822783 -258.81018983 409.67138035 -266.70135747 417.5368927 C-270.96637182 421.78974547 -275.21776923 426.05408325 -279.43430519 430.35505104 C-311.3699509 462.89796253 -311.3699509 462.89796253 -334.42213905 469.27587432 C-337.93215165 470.26184304 -341.2556197 471.56416573 -344.64355469 472.90673828 C-346.65099854 473.63346778 -348.66039174 474.35483947 -350.671875 475.0703125 C-352.35626175 475.67784615 -352.35626175 475.67784615 -354.07467651 476.2976532 C-357.63113377 477.57903893 -361.1903545 478.85250103 -364.75 480.125 C-367.26236093 481.0265116 -369.77460554 481.92833794 -372.28662109 482.83081055 C-373.56161436 483.28886588 -374.83660826 483.74691947 -376.11160278 484.20497131 C-377.06071218 484.54597209 -377.06071218 484.54597209 -378.02899551 484.89386177 C-379.93967034 485.58000509 -381.85066202 486.26526025 -383.76168823 486.95042419 C-392.16814191 489.96683175 -400.55348326 493.03738669 -408.9296875 496.13671875 C-412.14263833 497.32006772 -415.35597201 498.50237032 -418.56945801 499.68426514 C-420.58924125 500.43005422 -422.60742709 501.18018535 -424.62390137 501.93487549 C-427.40398155 502.97473454 -430.18943813 503.99873294 -432.9765625 505.01953125 C-433.77915497 505.32469162 -434.58174744 505.62985199 -435.40866089 505.94425964 C-440.49458627 507.78490641 -444.58477721 508.41624419 -450 508 C-452.5 506.5625 -452.5 506.5625 -454 504 C-454.90145208 495.5097708 -452.09162367 488.67925021 -449.0859375 480.84765625 C-448.56162882 479.44892724 -448.0386257 478.04970826 -447.51683044 476.65003967 C-446.11191965 472.89305019 -444.68885866 469.14319257 -443.26147842 465.39469147 C-441.77566176 461.4857312 -440.30404438 457.57143064 -438.83081055 453.65771484 C-437.02166085 448.85519821 -435.21000638 444.05366292 -433.38999939 439.25524902 C-429.67482209 429.45920588 -426.00683752 419.64725475 -422.38289642 409.81711388 C-420.90369324 405.81095402 -419.41410193 401.80864946 -417.92346191 397.80673313 C-416.75693738 394.67341449 -415.59757114 391.53789989 -414.44818115 388.39822388 C-413.1758959 384.92837894 -411.88174506 381.46745963 -410.58203125 378.0078125 C-410.2194371 377.00259048 -409.85684296 375.99736847 -409.48326111 374.96168518 C-407.01748156 368.4872529 -403.89238052 363.88925469 -399 359 C-398.51561966 358.50190826 -398.03123932 358.00381653 -397.53218079 357.4906311 C-395.336539 355.26155785 -393.08229803 353.09212631 -390.84375 350.90625 C-388.84061519 348.90819159 -386.99353174 346.83382239 -385.16791248 344.67320442 C-379.57606076 338.26326666 -373.48202462 332.33355359 -367.46965027 326.32247925 C-366.0845974 324.93412301 -364.69975636 323.54555541 -363.31510812 322.15679562 C-359.52155562 318.35326989 -355.72489843 314.55285675 -351.92768657 310.75298476 C-347.8283567 306.64973823 -343.73186005 302.54366466 -339.63493347 298.4380188 C-329.75013382 288.53349961 -319.8605254 278.63378871 -309.97031519 268.73467273 C-305.31060243 264.07057222 -300.65137873 259.40598321 -295.99209023 254.74145889 C-280.50221148 239.23457718 -265.01109183 223.72893677 -249.51632214 208.22694206 C-248.51545701 207.22560218 -247.51459245 206.22426174 -246.51372846 205.22292072 C-246.01741255 204.72636844 -245.52109665 204.22981616 -245.00974087 203.71821685 C-242.4953384 201.20261323 -239.98094309 198.68700245 -237.46655273 196.17138672 C-236.71808371 195.42255747 -236.71808371 195.42255747 -235.9544941 194.65860035 C-219.76786702 178.46407618 -203.58903236 162.26179617 -187.41470761 146.05498565 C-170.30116382 128.90713262 -153.18032648 111.76659455 -136.05126554 94.63424122 C-126.71889583 85.2997061 -117.38984739 75.96190355 -108.06917381 66.61568832 C-100.13540429 58.66022732 -92.19485913 50.7116089 -84.24537154 42.77185284 C-80.19048228 38.72151183 -76.13889681 34.66800523 -72.09598541 30.60570526 C-68.39298905 26.88510403 -64.68083505 23.17389974 -60.96125881 19.46987595 C-59.61931016 18.13030729 -58.28071709 16.7873666 -56.94590154 15.44069003 C-41.46261225 -0.17159547 -21.76414872 -11.73545392 0 0 Z " fill="#24BEAD" transform="translate(454,4)"/>
<path d="M0 0 C3.48933577 1.64703136 5.75955899 3.51679784 8.49316406 6.26611328 C9.37377502 7.14687531 10.25438599 8.02763733 11.16168213 8.93508911 C12.11310431 9.89672351 13.06441603 10.8584672 14.015625 11.8203125 C14.99596129 12.80438107 15.97674168 13.78800742 16.95794678 14.77120972 C19.53354467 17.35442714 22.10307857 19.94359512 24.67138672 22.53405762 C27.29551067 25.1786762 29.92533771 27.8176101 32.5546875 30.45703125 C37.7087167 35.63248072 42.85635157 40.81423122 48 46 C42.51386532 52.6767989 36.41884621 58.71796343 30.30691528 64.81333923 C29.10945629 66.01123469 27.91221723 67.20935003 26.71517837 68.40766531 C23.43592139 71.68915257 20.15356423 74.96752323 16.87068224 78.24538338 C13.32701924 81.78472098 9.78625379 85.32695524 6.24513245 88.86883545 C0.11305477 95.00143704 -6.02084867 101.13220755 -12.15600204 107.2617321 C-21.02636168 116.12395875 -29.89395307 124.98895106 -38.760875 133.85461707 C-53.14754674 148.23910112 -67.53644943 162.62135139 -81.92675781 177.00219727 C-95.90416747 190.97042549 -109.88052465 204.93970541 -123.85546875 218.91040039 C-124.71713413 219.77180305 -125.57879951 220.63320571 -126.46657597 221.52071147 C-130.78936596 225.84219641 -135.11213528 230.16370203 -139.43489432 234.48521793 C-175.28672516 270.32668497 -211.14217787 306.16452705 -247 342 C-248.19220355 338.42338934 -247.92193413 335.40939243 -247.66015625 331.71875 C-247.56523996 330.22982461 -247.47043631 328.74089204 -247.37573242 327.25195312 C-247.32420013 326.474729 -247.27266785 325.69750488 -247.21957397 324.89672852 C-246.15243796 308.71087679 -246.15243796 308.71087679 -245.6875 292.5 C-245.67017822 291.75556641 -245.65285645 291.01113281 -245.63500977 290.24414062 C-245.61331097 286.54340332 -245.61331097 286.54340332 -247.22998047 283.31933594 C-249.52141327 281.61134934 -250.84375544 281.63988304 -253.68359375 281.671875 C-254.60640137 281.67638672 -255.52920898 281.68089844 -256.47998047 281.68554688 C-257.45596191 281.70681641 -258.43194336 281.72808594 -259.4375 281.75 C-260.42637207 281.76095703 -261.41524414 281.77191406 -262.43408203 281.78320312 C-269.32153283 281.88716465 -276.15557911 282.19137643 -283 283 C-278.14450337 277.15295674 -272.91996032 271.77809304 -267.54150391 266.41210938 C-266.59773985 265.46698759 -265.65418808 264.52165379 -264.71083069 263.5761261 C-262.1655346 261.02629935 -259.6171194 258.47961213 -257.06796694 255.93364143 C-254.38897048 253.25719199 -251.7124321 250.5782861 -249.03549194 247.89978027 C-244.54010585 243.40257898 -240.04262506 238.90748061 -235.54394531 234.41357422 C-230.35931688 229.23438384 -225.17829602 224.05160558 -219.99914038 218.86694288 C-215.53623686 214.39948574 -211.07136796 209.93399986 -206.6048826 205.47012377 C-203.94437305 202.81116507 -201.28452421 200.1515549 -198.6264534 197.49015808 C-196.12524943 194.98604273 -193.62156843 192.48442951 -191.11604118 189.98464012 C-189.7705271 188.64105619 -188.42744138 187.29504174 -187.0844574 185.94892883 C-186.2659581 185.13324936 -185.4474588 184.31756989 -184.60415649 183.47717285 C-183.90401239 182.77740578 -183.20386829 182.0776387 -182.48250771 181.35666656 C-180.4227122 179.40128444 -178.3281741 177.53713806 -176.18047905 175.68089962 C-172.12368434 172.15232709 -168.30034347 168.4376986 -164.50817871 164.62843323 C-163.79897231 163.92008125 -163.0897659 163.21172927 -162.35906839 162.48191208 C-160.00457973 160.12905874 -157.65366178 157.77267103 -155.30273438 155.41625977 C-153.60720954 153.72045262 -151.91146399 152.02486612 -150.21551514 150.32948303 C-146.10256211 146.21678657 -141.99190303 142.1018079 -137.88226694 137.98579717 C-133.09663815 133.1929951 -128.30816054 128.40304346 -123.51951438 123.61325645 C-114.98110203 115.07266004 -106.4449213 106.52983681 -97.91015625 97.9855957 C-89.62357342 89.689822 -81.33593213 81.39510808 -73.046875 73.10180664 C-72.27938282 72.33392038 -72.27938282 72.33392038 -71.49638575 71.55052126 C-68.92930782 68.98213821 -66.36220916 66.41377587 -63.79510021 63.84542382 C-42.52685409 42.56682523 -21.26227227 21.28456795 0 0 Z " fill="#08A897" transform="translate(395,117)"/>
<path d="M0 0 C10.07962998 7.04457303 18.60574512 16.26704948 27.25341797 24.93774414 C29.74970298 27.4372026 32.2590772 29.92298592 34.76953125 32.40820312 C36.38362283 34.02002227 37.99693113 35.63262626 39.609375 37.24609375 C40.34806824 37.97557724 41.08676147 38.70506073 41.84783936 39.45664978 C50.95734617 48.6466709 58.28095062 58.01439708 58.46899414 71.30712891 C58.45860107 72.15452637 58.44820801 73.00192383 58.4375 73.875 C58.42775146 74.75978027 58.41800293 75.64456055 58.40795898 76.55615234 C57.91238703 94.76968142 44.20840281 104.9444443 32.08984375 117.0078125 C30.86937308 118.22641318 29.64912663 119.44523848 28.42909241 120.66427612 C25.25031986 123.8392692 22.06855383 127.01124516 18.8861084 130.18255615 C15.62599922 133.43235176 12.36879429 136.68505552 9.11132812 139.9375 C2.74369006 146.29448158 -3.62712107 152.64827271 -10 159 C-13.26362976 157.56906155 -15.42615023 155.82129135 -17.93572998 153.30477905 C-18.70691666 152.53634171 -19.47810333 151.76790436 -20.2726593 150.97618103 C-21.1091954 150.13245438 -21.94573151 149.28872772 -22.80761719 148.41943359 C-23.69577621 147.53156662 -24.58393524 146.64369965 -25.49900818 145.72892761 C-27.93087819 143.29763109 -30.35653521 140.86022036 -32.78112316 138.42166471 C-35.31731792 135.87296197 -37.85918285 133.32992711 -40.40045166 130.7862854 C-45.21028534 125.97023716 -50.01499831 121.14911367 -54.81789231 116.32614577 C-60.28672294 110.83495542 -65.76123807 105.34944739 -71.236238 99.86440921 C-82.4971623 88.58258345 -93.75092689 77.29364333 -105 66 C-103.17848825 62.07519827 -100.64235528 59.34653229 -97.60742188 56.31689453 C-97.05748566 55.76024109 -96.50754944 55.20358765 -95.94094849 54.63006592 C-94.12217663 52.79230797 -92.29596329 50.96217524 -90.46875 49.1328125 C-89.19504344 47.85267512 -87.92148613 46.57238924 -86.64807129 45.29196167 C-83.97499925 42.60691294 -81.29782312 39.92603275 -78.61816406 37.24755859 C-75.20315509 33.83275206 -71.80206891 30.40444233 -68.40447235 26.97232246 C-65.77576688 24.32124998 -63.13788895 21.67944905 -60.49745178 19.04006577 C-59.24086641 17.78113614 -57.98748546 16.51899887 -56.73753357 15.25348282 C-41.34002949 -0.31758938 -21.62034239 -11.65791206 0 0 Z " fill="#F05660" transform="translate(454,4)"/>
<path d="M0 0 C2.51302801 2.82715651 2.6275911 5.50024956 2.6328125 9.1171875 C2.63474609 9.98964111 2.63667969 10.86209473 2.63867188 11.76098633 C2.63416016 12.68548584 2.62964844 13.60998535 2.625 14.5625 C2.62306641 15.50182373 2.62113281 16.44114746 2.61914062 17.40893555 C2.57506259 24.54284367 2.23756084 31.5884769 1.5 38.6875 C2.11101562 38.543125 2.72203125 38.39875 3.3515625 38.25 C10.5718924 36.78559506 17.64520806 36.40881418 25 36.3125 C25.96760254 36.28671875 26.93520508 36.2609375 27.93212891 36.234375 C34.69850866 36.21540495 34.69850866 36.21540495 38.1328125 38.23828125 C40.00960671 41.60042402 40.00693602 44.50580331 39.875 48.25 C39.86065918 49.03777832 39.84631836 49.82555664 39.83154297 50.63720703 C39.75661047 53.65615432 39.63205054 56.67048806 39.5 59.6875 C39.47123779 60.36202209 39.44247559 61.03654419 39.4128418 61.73150635 C39.17822227 67.17671023 38.90878537 72.61965816 38.625 78.0625 C38.58606628 78.84497101 38.54713257 79.62744202 38.50701904 80.43362427 C38.39178117 82.69336966 38.26419716 84.95207969 38.1328125 87.2109375 C38.0826297 88.2302813 38.0826297 88.2302813 38.03143311 89.2702179 C37.79188569 93.11420339 37.45793025 96.34076365 35.5 99.6875 C31.20990446 103.13538289 26.58022478 105.04259766 21.484375 106.9453125 C20.69707001 107.24570938 19.90976501 107.54610626 19.09860229 107.85560608 C16.48541909 108.8494176 13.8679699 109.83137352 11.25 110.8125 C9.38845023 111.51587609 7.52696068 112.21941155 5.66552734 112.9230957 C-13.99666982 120.33105153 -33.77538393 127.41742855 -53.56442261 134.47781372 C-60.18972147 136.84656607 -66.79510615 139.26452227 -73.390625 141.71484375 C-75.86169396 142.62769396 -78.33306418 143.53972408 -80.80450439 144.4515686 C-82.32928318 145.01727962 -83.85241933 145.58744172 -85.37371826 146.16244507 C-87.44559541 146.94532994 -89.52270646 147.71244183 -91.6015625 148.4765625 C-92.74963379 148.90662598 -93.89770508 149.33668945 -95.08056641 149.77978516 C-99.84896724 151.04559369 -104.56024796 151.80285742 -109 149.25 C-111.23531197 145.43134206 -111.04089008 141.9554418 -110.5 137.6875 C-109.16003147 132.85923096 -107.37979776 128.20903251 -105.5859375 123.53515625 C-105.06149687 122.13628798 -104.53835631 120.73693171 -104.01641846 119.33712769 C-102.6113082 115.58012598 -101.18809064 111.83023441 -99.76087189 108.08158493 C-98.27670318 104.17530295 -96.80794378 100.26323415 -95.33740234 96.35180664 C-92.92596769 89.94368283 -90.50414485 83.53956936 -88.07617188 77.13769531 C-84.95496164 68.90573235 -81.86788066 60.66134891 -78.79101181 52.41272926 C-77.28776122 48.38643116 -75.77837237 44.36243339 -74.26802254 40.33879375 C-73.08247552 37.18028763 -71.89921134 34.02097787 -70.72186279 30.85940552 C-69.41993259 27.37025238 -68.10617711 23.88578812 -66.7890625 20.40234375 C-66.4109845 19.38163788 -66.03290649 18.36093201 -65.64337158 17.30929565 C-61.88887681 7.45493783 -61.88887681 7.45493783 -58.5 4.6875 C-55.09225952 3.65392024 -51.67756587 3.26714574 -48.14453125 2.88671875 C-47.12832199 2.76061722 -46.11211273 2.63451569 -45.06510925 2.5045929 C-41.816349 2.10734628 -38.56485557 1.74150666 -35.3125 1.375 C-33.14234493 1.11063124 -30.97241883 0.84437557 -28.80273438 0.57617188 C-26.70853856 0.32381193 -24.61414242 0.07310768 -22.51953125 -0.17578125 C-21.06592949 -0.34911736 -21.06592949 -0.34911736 -19.58296204 -0.5259552 C-4.27191665 -2.24275624 -4.27191665 -2.24275624 0 0 Z " fill="#FCD29A" transform="translate(110.5,361.3125)"/>
<path d="M0 0 C3.26362976 1.43093845 5.42615023 3.17870865 7.93572998 5.69522095 C8.70691666 6.46365829 9.47810333 7.23209564 10.2726593 8.02381897 C11.1091954 8.86754562 11.94573151 9.71127228 12.80761719 10.58056641 C13.69577621 11.46843338 14.58393524 12.35630035 15.49900818 13.27107239 C17.93087819 15.70236891 20.35653521 18.13977964 22.78112316 20.57833529 C25.31731792 23.12703803 27.85918285 25.67007289 30.40045166 28.2137146 C35.21028534 33.02976284 40.01499831 37.85088633 44.81789231 42.67385423 C50.28672294 48.16504458 55.76123807 53.65055261 61.236238 59.13559079 C72.4971623 70.41741655 83.75092689 81.70635667 95 93 C93.2241334 96.81249879 90.99634812 99.23349496 87.9921875 102.203125 C87.50670441 102.6857782 87.02122131 103.1684314 86.52102661 103.66571045 C84.97700134 105.19858562 83.42615176 106.72434004 81.875 108.25 C80.82375991 109.29120361 79.77297343 110.33286541 78.72265625 111.375 C76.15366996 113.92199464 73.57851839 116.46265177 71 119 C67.73637024 117.56906155 65.57384977 115.82129135 63.06427002 113.30477905 C62.29308334 112.53634171 61.52189667 111.76790436 60.7273407 110.97618103 C59.8908046 110.13245438 59.05426849 109.28872772 58.19238281 108.41943359 C57.30422379 107.53156662 56.41606476 106.64369965 55.50099182 105.72892761 C53.06912181 103.29763109 50.64346479 100.86022036 48.21887684 98.42166471 C45.68268208 95.87296197 43.14081715 93.32992711 40.59954834 90.7862854 C35.78971466 85.97023716 30.98500169 81.14911367 26.18210769 76.32614577 C20.71327706 70.83495542 15.23876193 65.34944739 9.763762 59.86440921 C-1.4971623 48.58258345 -12.75092689 37.29364333 -24 26 C-22.2241334 22.18750121 -19.99634812 19.76650504 -16.9921875 16.796875 C-16.50670441 16.3142218 -16.02122131 15.8315686 -15.52102661 15.33428955 C-13.97700134 13.80141438 -12.42615176 12.27565996 -10.875 10.75 C-9.82375991 9.70879639 -8.77297343 8.66713459 -7.72265625 7.625 C-5.15366996 5.07800536 -2.57851839 2.53734823 0 0 Z " fill="#EDEFEE" transform="translate(373,44)"/>
<path d="M0 0 C18.0227395 4.71658927 32.64801717 15.01719608 42.38671875 31.046875 C45.00198326 35.83413886 47.44701685 40.75868187 49 46 C48 49 48 49 45.81192017 50.11331177 C44.36322037 50.63174149 44.36322037 50.63174149 42.88525391 51.16064453 C41.79387115 51.55760529 40.7024884 51.95456604 39.57803345 52.36355591 C38.38954803 52.78241058 37.20106262 53.20126526 35.9765625 53.6328125 C34.76431 54.07011688 33.5520575 54.50742126 32.30307007 54.95797729 C29.07577883 56.12197999 25.84362289 57.27184919 22.61029053 58.41894531 C19.32564552 59.58710633 16.04588039 60.76880072 12.765625 61.94921875 C-11.94070081 70.82903892 -11.94070081 70.82903892 -18 70 C-20.5 68.5625 -20.5 68.5625 -22 66 C-22.80804404 57.80181749 -20.38414532 51.48764956 -17.44140625 43.90625 C-16.74578835 42.06444153 -16.74578835 42.06444153 -16.03611755 40.1854248 C-14.81183224 36.94538805 -13.56946917 33.71257791 -12.32348633 30.48083496 C-11.30538316 27.83072906 -10.30056135 25.17568228 -9.29631138 22.52030182 C-7.22518561 17.04536856 -5.14408128 11.57416527 -3.04125977 6.11132812 C-2.48499657 4.66312683 -2.48499657 4.66312683 -1.91749573 3.18566895 C-1 1 -1 1 0 0 Z " fill="#83899E" transform="translate(22,442)"/>
</svg>
